<svg width="80" height="76" viewBox="0 0 80 76" fill="none" xmlns="http://www.w3.org/2000/svg">
<g filter="url(#filter0_d_2_8753)">
<path d="M39.8889 20.1625C38.6586 19.7482 37.2233 20.1625 36.1981 20.9911L29.8419 27.4129C28.4066 29.0701 26.3562 29.8987 24.1008 29.8987C21.8454 29.8987 20 31.5559 20 33.8346V42.1207C20 44.3994 21.8454 46.0567 23.8958 46.0567C25.9462 46.0567 28.2016 46.8853 29.6369 48.5425L35.9931 54.9642C36.6082 55.5857 37.6334 56 38.4536 56C38.8637 56 39.2737 56 39.4788 55.7928C40.709 55.3785 41.7342 54.3428 41.9393 52.8927C42.5544 48.7496 43.3745 42.7422 43.3745 37.7705C43.3745 32.7989 42.9645 27.2057 42.1443 22.8555C41.9393 21.6126 41.1191 20.5768 39.8889 20.1625Z" fill="white"/>
<path d="M55.677 22.6483C55.2669 22.0268 54.2417 21.8197 53.6266 22.234C53.0115 22.6483 52.8064 23.684 53.2165 24.3055C55.677 28.0343 57.1122 32.7988 57.1122 37.9776C57.1122 43.1564 55.677 47.9209 53.2165 51.6497C52.8064 52.2712 53.0115 53.3069 53.6266 53.7212C53.8316 53.9284 54.2417 53.9284 54.4467 53.9284C54.8568 53.9284 55.4719 53.7212 55.677 53.3069C58.5475 49.1639 59.9828 43.7779 59.9828 37.9776C60.1878 32.1773 58.5475 26.7913 55.677 22.6483Z" fill="white"/>
<path d="M47.6802 26.17C46.8601 26.5843 46.655 27.413 46.8601 28.2416C48.0903 30.7274 48.7054 34.249 48.7054 37.9778C48.7054 41.7065 48.0903 45.021 46.8601 47.714C46.45 48.5426 46.8601 49.3712 47.6802 49.7855C47.8853 49.9926 48.0903 49.9926 48.2953 49.9926C48.9105 49.9926 49.3205 49.5783 49.7306 49.164C51.1659 46.2639 51.9861 42.328 51.9861 38.1849C51.9861 34.0419 51.1659 30.1059 49.7306 27.2058C49.3205 26.17 48.5004 25.7557 47.6802 26.17Z" fill="white"/>
</g>
<defs>
<filter id="filter0_d_2_8753" x="0" y="0" width="80" height="76" filterUnits="userSpaceOnUse" color-interpolation-filters="sRGB">
<feFlood flood-opacity="0" result="BackgroundImageFix"/>
<feColorMatrix in="SourceAlpha" type="matrix" values="0 0 0 0 0 0 0 0 0 0 0 0 0 0 0 0 0 0 127 0" result="hardAlpha"/>
<feOffset/>
<feGaussianBlur stdDeviation="10"/>
<feComposite in2="hardAlpha" operator="out"/>
<feColorMatrix type="matrix" values="0 0 0 0 1 0 0 0 0 1 0 0 0 0 1 0 0 0 0.8 0"/>
<feBlend mode="normal" in2="BackgroundImageFix" result="effect1_dropShadow_2_8753"/>
<feBlend mode="normal" in="SourceGraphic" in2="effect1_dropShadow_2_8753" result="shape"/>
</filter>
</defs>
</svg>
