<svg width="80" height="64" viewBox="0 0 80 64" fill="none" xmlns="http://www.w3.org/2000/svg">
<g filter="url(#filter0_d_2_8765)">
<path d="M40.0204 24.7437C35.8056 24.7437 32.3916 28 32.3916 32.0201C32.3916 36.0402 35.8056 39.2965 40.0204 39.2965C44.2353 39.2965 47.6493 36.0402 47.6493 32.0201C47.6493 28 44.2353 24.7437 40.0204 24.7437ZM43.8559 31.2563L39.9361 34.995C39.6832 35.2362 39.3461 35.3568 39.0089 35.3568C38.6717 35.3568 38.3345 35.2362 38.0816 34.995L36.1428 33.1457C35.637 32.6633 35.637 31.8593 36.1428 31.3367C36.6486 30.8543 37.4915 30.8543 38.0395 31.3367L39.051 32.3015L42.0435 29.4473C42.5493 28.9648 43.3923 28.9648 43.9402 29.4473C44.3617 29.9699 44.3617 30.7739 43.8559 31.2563Z" fill="white"/>
<path d="M57.8913 20H22.1496C20.9694 20 20 20.9246 20 22.0503V41.9497C20 43.0754 20.9694 44 22.1496 44H57.8491C59.0293 44 59.9987 43.0754 59.9987 41.9497V22.0503C60.0408 20.9246 59.0714 20 57.8913 20ZM56.964 37.0854C54.8144 37.4874 53.1707 39.0553 52.7492 41.1055H27.2916C26.8702 39.0553 25.2264 37.4874 23.0768 37.0854V26.9548C25.2264 26.5528 26.8702 24.9849 27.2916 22.9347H52.7492C53.1707 24.9849 54.8144 26.5528 56.964 26.9548V37.0854Z" fill="white"/>
<path d="M27.8818 30.01C26.7017 30.01 25.7744 30.9346 25.7744 32.0201C25.7744 33.1457 26.7438 34.0301 27.8818 34.0301C29.062 34.0301 29.9892 33.1055 29.9892 32.0201C29.9892 30.8944 29.062 30.01 27.8818 30.01Z" fill="white"/>
<path d="M52.1592 30.01C50.979 30.01 50.0518 30.9346 50.0518 32.0201C50.0518 33.1457 51.0212 34.0301 52.1592 34.0301C53.3393 34.0301 54.2666 33.1055 54.2666 32.0201C54.2666 30.8944 53.3393 30.01 52.1592 30.01Z" fill="white"/>
</g>
<defs>
<filter id="filter0_d_2_8765" x="0" y="0" width="80" height="64" filterUnits="userSpaceOnUse" color-interpolation-filters="sRGB">
<feFlood flood-opacity="0" result="BackgroundImageFix"/>
<feColorMatrix in="SourceAlpha" type="matrix" values="0 0 0 0 0 0 0 0 0 0 0 0 0 0 0 0 0 0 127 0" result="hardAlpha"/>
<feOffset/>
<feGaussianBlur stdDeviation="10"/>
<feComposite in2="hardAlpha" operator="out"/>
<feColorMatrix type="matrix" values="0 0 0 0 1 0 0 0 0 1 0 0 0 0 1 0 0 0 0.8 0"/>
<feBlend mode="normal" in2="BackgroundImageFix" result="effect1_dropShadow_2_8765"/>
<feBlend mode="normal" in="SourceGraphic" in2="effect1_dropShadow_2_8765" result="shape"/>
</filter>
</defs>
</svg>
