<svg width="122" height="19" viewBox="0 0 122 19" fill="none" xmlns="http://www.w3.org/2000/svg">
<path d="M6.55859 11.6367H2.11719V9.30469H6.55859C7.33203 9.30469 7.95703 9.17969 8.43359 8.92969C8.91016 8.67969 9.25781 8.33594 9.47656 7.89844C9.70312 7.45312 9.81641 6.94531 9.81641 6.375C9.81641 5.83594 9.70312 5.33203 9.47656 4.86328C9.25781 4.38672 8.91016 4.00391 8.43359 3.71484C7.95703 3.42578 7.33203 3.28125 6.55859 3.28125H3.01953V18H0.078125V0.9375H6.55859C7.87891 0.9375 9 1.17188 9.92188 1.64062C10.8516 2.10156 11.5586 2.74219 12.043 3.5625C12.5273 4.375 12.7695 5.30469 12.7695 6.35156C12.7695 7.45312 12.5273 8.39844 12.043 9.1875C11.5586 9.97656 10.8516 10.582 9.92188 11.0039C9 11.4258 7.87891 11.6367 6.55859 11.6367ZM26.5742 15.668V18H17.5156V15.668H26.5742ZM18.3477 0.9375V18H15.4062V0.9375H18.3477ZM25.3906 8.0625V10.3594H17.5156V8.0625H25.3906ZM26.5156 0.9375V3.28125H17.5156V0.9375H26.5156ZM42.582 9V9.9375C42.582 11.2266 42.4141 12.3828 42.0781 13.4062C41.7422 14.4297 41.2617 15.3008 40.6367 16.0195C40.0195 16.7383 39.2773 17.2891 38.4102 17.6719C37.543 18.0469 36.582 18.2344 35.5273 18.2344C34.4805 18.2344 33.5234 18.0469 32.6562 17.6719C31.7969 17.2891 31.0508 16.7383 30.418 16.0195C29.7852 15.3008 29.293 14.4297 28.9414 13.4062C28.5977 12.3828 28.4258 11.2266 28.4258 9.9375V9C28.4258 7.71094 28.5977 6.55859 28.9414 5.54297C29.2852 4.51953 29.7695 3.64844 30.3945 2.92969C31.0273 2.20312 31.7734 1.65234 32.6328 1.27734C33.5 0.894531 34.457 0.703125 35.5039 0.703125C36.5586 0.703125 37.5195 0.894531 38.3867 1.27734C39.2539 1.65234 40 2.20312 40.625 2.92969C41.25 3.64844 41.7305 4.51953 42.0664 5.54297C42.4102 6.55859 42.582 7.71094 42.582 9ZM39.6406 9.9375V8.97656C39.6406 8.02344 39.5469 7.18359 39.3594 6.45703C39.1797 5.72266 38.9102 5.10938 38.5508 4.61719C38.1992 4.11719 37.7656 3.74219 37.25 3.49219C36.7344 3.23438 36.1523 3.10547 35.5039 3.10547C34.8555 3.10547 34.2773 3.23438 33.7695 3.49219C33.2617 3.74219 32.8281 4.11719 32.4688 4.61719C32.1172 5.10938 31.8477 5.72266 31.6602 6.45703C31.4727 7.18359 31.3789 8.02344 31.3789 8.97656V9.9375C31.3789 10.8906 31.4727 11.7344 31.6602 12.4688C31.8477 13.2031 32.1211 13.8242 32.4805 14.332C32.8477 14.832 33.2852 15.2109 33.793 15.4688C34.3008 15.7188 34.8789 15.8438 35.5273 15.8438C36.1836 15.8438 36.7656 15.7188 37.2734 15.4688C37.7812 15.2109 38.2109 14.832 38.5625 14.332C38.9141 13.8242 39.1797 13.2031 39.3594 12.4688C39.5469 11.7344 39.6406 10.8906 39.6406 9.9375ZM52.0039 11.6367H47.5625V9.30469H52.0039C52.7773 9.30469 53.4023 9.17969 53.8789 8.92969C54.3555 8.67969 54.7031 8.33594 54.9219 7.89844C55.1484 7.45312 55.2617 6.94531 55.2617 6.375C55.2617 5.83594 55.1484 5.33203 54.9219 4.86328C54.7031 4.38672 54.3555 4.00391 53.8789 3.71484C53.4023 3.42578 52.7773 3.28125 52.0039 3.28125H48.4648V18H45.5234V0.9375H52.0039C53.3242 0.9375 54.4453 1.17188 55.3672 1.64062C56.2969 2.10156 57.0039 2.74219 57.4883 3.5625C57.9727 4.375 58.2148 5.30469 58.2148 6.35156C58.2148 7.45312 57.9727 8.39844 57.4883 9.1875C57.0039 9.97656 56.2969 10.582 55.3672 11.0039C54.4453 11.4258 53.3242 11.6367 52.0039 11.6367ZM71.5391 15.668V18H62.9727V15.668H71.5391ZM63.793 0.9375V18H60.8516V0.9375H63.793ZM84.9805 15.668V18H75.9219V15.668H84.9805ZM76.7539 0.9375V18H73.8125V0.9375H76.7539ZM83.7969 8.0625V10.3594H75.9219V8.0625H83.7969ZM84.9219 0.9375V3.28125H75.9219V0.9375H84.9219ZM102.934 0.9375H105.863V12.3398C105.863 13.6367 105.582 14.7227 105.02 15.5977C104.457 16.4727 103.691 17.1328 102.723 17.5781C101.762 18.0156 100.688 18.2344 99.5 18.2344C98.2734 18.2344 97.1797 18.0156 96.2188 17.5781C95.2578 17.1328 94.5 16.4727 93.9453 15.5977C93.3984 14.7227 93.125 13.6367 93.125 12.3398V0.9375H96.0547V12.3398C96.0547 13.1602 96.1953 13.8359 96.4766 14.3672C96.7578 14.8906 97.1562 15.2773 97.6719 15.5273C98.1875 15.7773 98.7969 15.9023 99.5 15.9023C100.203 15.9023 100.809 15.7773 101.316 15.5273C101.832 15.2773 102.23 14.8906 102.512 14.3672C102.793 13.8359 102.934 13.1602 102.934 12.3398V0.9375ZM115.543 11.6367H111.102V9.30469H115.543C116.316 9.30469 116.941 9.17969 117.418 8.92969C117.895 8.67969 118.242 8.33594 118.461 7.89844C118.688 7.45312 118.801 6.94531 118.801 6.375C118.801 5.83594 118.688 5.33203 118.461 4.86328C118.242 4.38672 117.895 4.00391 117.418 3.71484C116.941 3.42578 116.316 3.28125 115.543 3.28125H112.004V18H109.062V0.9375H115.543C116.863 0.9375 117.984 1.17188 118.906 1.64062C119.836 2.10156 120.543 2.74219 121.027 3.5625C121.512 4.375 121.754 5.30469 121.754 6.35156C121.754 7.45312 121.512 8.39844 121.027 9.1875C120.543 9.97656 119.836 10.582 118.906 11.0039C117.984 11.4258 116.863 11.6367 115.543 11.6367Z" fill="black"/>
</svg>
