<svg width="80" height="80" viewBox="0 0 80 80" fill="none" xmlns="http://www.w3.org/2000/svg">
<g filter="url(#filter0_d_2_8749)">
<path d="M59.3878 37.7551C59.1837 35.7143 57.7551 33.8776 55.9184 33.2653C55.9184 32.6531 55.9184 31.8367 55.7143 31.0204C55.5102 28.9796 53.8776 27.1429 51.8367 26.7347C51.8367 26.3265 51.8367 25.7143 51.6327 25.102C51.4286 22.449 49.1837 20.4082 46.5306 20.2041C44.6939 20.2041 42.0408 20 40 20C37.9592 20 35.3061 20.2041 33.4694 20.2041C30.8163 20.4082 28.5714 22.449 28.3673 25.102C28.3673 25.7143 28.3673 26.1224 28.1633 26.7347C26.1224 27.3469 24.4898 28.9796 24.2857 31.0204C24.2857 31.8367 24.0816 32.6531 24.0816 33.2653C22.2449 33.8776 21.0204 35.7143 20.6122 37.7551C20.4082 40.2041 20 43.4694 20 46.1225C20 48.7755 20.4082 52.0408 20.6122 54.4898C20.8163 57.1429 23.0612 59.1837 25.7143 59.3878C29.7959 59.5918 35.5102 60 40 60C44.4898 60 50.2041 59.5918 54.2857 59.3878C56.9388 59.1837 59.1837 57.1429 59.3878 54.4898C59.5918 52.0408 60 48.7755 60 46.1225C60 43.4694 59.5918 40.2041 59.3878 37.7551ZM33.6735 23.4694C35.5102 23.4694 37.9592 23.2653 40 23.2653C42.0408 23.2653 44.4898 23.4694 46.3265 23.4694C47.551 23.4694 48.3674 24.4898 48.5714 25.5102C48.5714 25.9184 48.5714 26.1224 48.5714 26.5306C45.9184 26.5306 42.6531 26.3265 40 26.3265C37.3469 26.3265 34.0816 26.3265 31.4286 26.5306C31.4286 26.1224 31.4286 25.9184 31.4286 25.5102C31.6327 24.2857 32.449 23.4694 33.6735 23.4694ZM45.102 45.3061L39.5918 49.3878C39.3878 49.5918 38.9796 49.7959 38.5714 49.7959C38.1633 49.7959 37.9592 49.7959 37.551 49.3878L34.898 47.3469C34.2857 46.9388 34.0816 45.9184 34.6939 45.3061C35.3061 44.6939 36.1224 44.4898 36.7347 45.102L38.5714 46.5306L43.0612 43.0612C43.6735 42.6531 44.6939 42.6531 45.102 43.2653C45.5102 43.8776 45.7143 44.6939 45.102 45.3061ZM40 32.2449C36.1225 32.2449 31.2245 32.449 27.3469 32.6531C27.3469 32.2449 27.3469 31.8367 27.551 31.2245C27.7551 30.2041 28.5714 29.3878 29.7959 29.3878C32.8571 29.1837 36.9388 29.1837 40.2041 29.1837C43.4694 29.1837 47.551 29.3878 50.6122 29.3878C51.8367 29.3878 52.6531 30.2041 52.8571 31.2245C52.8571 31.6327 53.0612 32.2449 53.0612 32.6531C48.7755 32.6531 43.8776 32.2449 40 32.2449Z" fill="white"/>
</g>
<defs>
<filter id="filter0_d_2_8749" x="0" y="0" width="80" height="80" filterUnits="userSpaceOnUse" color-interpolation-filters="sRGB">
<feFlood flood-opacity="0" result="BackgroundImageFix"/>
<feColorMatrix in="SourceAlpha" type="matrix" values="0 0 0 0 0 0 0 0 0 0 0 0 0 0 0 0 0 0 127 0" result="hardAlpha"/>
<feOffset/>
<feGaussianBlur stdDeviation="10"/>
<feComposite in2="hardAlpha" operator="out"/>
<feColorMatrix type="matrix" values="0 0 0 0 1 0 0 0 0 1 0 0 0 0 1 0 0 0 0.8 0"/>
<feBlend mode="normal" in2="BackgroundImageFix" result="effect1_dropShadow_2_8749"/>
<feBlend mode="normal" in="SourceGraphic" in2="effect1_dropShadow_2_8749" result="shape"/>
</filter>
</defs>
</svg>
