<svg width="76" height="80" viewBox="0 0 76 80" fill="none" xmlns="http://www.w3.org/2000/svg">
<g filter="url(#filter0_d_2_8763)">
<path d="M55.5862 37.8422C55.3793 35.1502 53.3103 33.0793 50.6207 32.8723C46.8966 32.4581 41.931 32.251 38 32.251C35.931 32.251 33.6552 32.251 31.3793 32.4581V27.4881C31.3793 25.0031 33.4483 22.9323 35.931 22.9323H41.1034C43.1724 22.9323 44.8276 24.589 44.8276 26.6598C44.8276 27.4881 45.4483 28.3164 46.4828 28.3164C47.5172 28.3164 48.1379 27.6952 48.1379 26.6598C48.1379 22.9323 45.0345 20.0332 41.5172 20.0332H35.931C31.5862 19.619 28.069 23.1394 28.069 27.4881V32.6652C27.0345 32.6652 26.2069 32.8723 25.3793 32.8723C22.6897 33.0793 20.6207 35.1502 20.4138 37.8422C20.2069 40.1201 20 43.6405 20 46.1255C20 48.6105 20.2069 51.9238 20.4138 54.4088C20.6207 57.1008 22.6897 59.1717 25.3793 59.3788C29.1034 59.7929 34.069 60 38 60C41.931 60 46.8966 59.5858 50.6207 59.3788C53.3103 59.1717 55.3793 57.1008 55.5862 54.4088C55.7931 52.1309 56 48.8176 56 46.1255C56 43.4334 55.7931 40.3272 55.5862 37.8422ZM39.6552 48.1963C39.6552 49.0247 39.0345 49.853 38 49.853C36.9655 49.853 36.3448 49.2317 36.3448 48.1963V44.0547C36.3448 43.2264 36.9655 42.398 38 42.398C39.0345 42.398 39.6552 43.0193 39.6552 44.0547V48.1963Z" fill="white"/>
</g>
<defs>
<filter id="filter0_d_2_8763" x="0" y="0" width="76" height="80" filterUnits="userSpaceOnUse" color-interpolation-filters="sRGB">
<feFlood flood-opacity="0" result="BackgroundImageFix"/>
<feColorMatrix in="SourceAlpha" type="matrix" values="0 0 0 0 0 0 0 0 0 0 0 0 0 0 0 0 0 0 127 0" result="hardAlpha"/>
<feOffset/>
<feGaussianBlur stdDeviation="10"/>
<feComposite in2="hardAlpha" operator="out"/>
<feColorMatrix type="matrix" values="0 0 0 0 1 0 0 0 0 1 0 0 0 0 1 0 0 0 0.8 0"/>
<feBlend mode="normal" in2="BackgroundImageFix" result="effect1_dropShadow_2_8763"/>
<feBlend mode="normal" in="SourceGraphic" in2="effect1_dropShadow_2_8763" result="shape"/>
</filter>
</defs>
</svg>
